<mxfile host="app.diagrams.net" modified="2024-06-05T16:48:01.852Z" agent="Mozilla/5.0 (X11; Linux x86_64) AppleWebKit/537.36 (KHTML, like Gecko) Chrome/125.0.0.0 Safari/537.36" etag="2uV3OEHSuWUIxYzabt8f" version="24.4.13" type="github">
  <diagram name="Page-1" id="eMjODvNCzguRfWdVTwWJ">
    <mxGraphModel dx="3240" dy="1265" grid="1" gridSize="10" guides="1" tooltips="1" connect="1" arrows="1" fold="1" page="1" pageScale="1" pageWidth="850" pageHeight="1100" math="0" shadow="0">
      <root>
        <mxCell id="0" />
        <mxCell id="1" parent="0" />
        <mxCell id="yuGcTXJu8iFB5LS19rX8-1" value="" style="rounded=1;whiteSpace=wrap;html=1;fillColor=none;" parent="1" vertex="1">
          <mxGeometry x="-400" y="280" width="720" height="440" as="geometry" />
        </mxCell>
        <mxCell id="yuGcTXJu8iFB5LS19rX8-15" style="edgeStyle=orthogonalEdgeStyle;rounded=0;orthogonalLoop=1;jettySize=auto;html=1;entryX=0;entryY=0.5;entryDx=0;entryDy=0;" parent="1" source="yuGcTXJu8iFB5LS19rX8-3" target="yuGcTXJu8iFB5LS19rX8-4" edge="1">
          <mxGeometry relative="1" as="geometry">
            <Array as="points">
              <mxPoint x="-215" y="480" />
              <mxPoint x="-215" y="380" />
            </Array>
          </mxGeometry>
        </mxCell>
        <mxCell id="yuGcTXJu8iFB5LS19rX8-16" style="edgeStyle=orthogonalEdgeStyle;rounded=0;orthogonalLoop=1;jettySize=auto;html=1;entryX=0;entryY=0.5;entryDx=0;entryDy=0;" parent="1" source="yuGcTXJu8iFB5LS19rX8-3" target="yuGcTXJu8iFB5LS19rX8-9" edge="1">
          <mxGeometry relative="1" as="geometry" />
        </mxCell>
        <mxCell id="yuGcTXJu8iFB5LS19rX8-17" style="edgeStyle=orthogonalEdgeStyle;rounded=0;orthogonalLoop=1;jettySize=auto;html=1;exitX=1;exitY=0.75;exitDx=0;exitDy=0;entryX=0;entryY=0.25;entryDx=0;entryDy=0;" parent="1" source="yuGcTXJu8iFB5LS19rX8-3" target="yuGcTXJu8iFB5LS19rX8-11" edge="1">
          <mxGeometry relative="1" as="geometry">
            <Array as="points">
              <mxPoint x="-280" y="520" />
              <mxPoint x="-215" y="520" />
              <mxPoint x="-215" y="605" />
            </Array>
          </mxGeometry>
        </mxCell>
        <mxCell id="yuGcTXJu8iFB5LS19rX8-3" value="Nginx" style="rounded=1;whiteSpace=wrap;html=1;" parent="1" vertex="1">
          <mxGeometry x="-400" y="470" width="120" height="60" as="geometry" />
        </mxCell>
        <mxCell id="yuGcTXJu8iFB5LS19rX8-12" style="edgeStyle=orthogonalEdgeStyle;rounded=0;orthogonalLoop=1;jettySize=auto;html=1;entryX=0;entryY=0.5;entryDx=0;entryDy=0;" parent="1" source="yuGcTXJu8iFB5LS19rX8-4" target="yuGcTXJu8iFB5LS19rX8-10" edge="1">
          <mxGeometry relative="1" as="geometry" />
        </mxCell>
        <mxCell id="yuGcTXJu8iFB5LS19rX8-13" style="edgeStyle=orthogonalEdgeStyle;rounded=0;orthogonalLoop=1;jettySize=auto;html=1;exitX=1;exitY=0.5;exitDx=0;exitDy=0;entryX=0;entryY=0.5;entryDx=0;entryDy=0;" parent="1" source="yuGcTXJu8iFB5LS19rX8-4" target="yuGcTXJu8iFB5LS19rX8-8" edge="1">
          <mxGeometry relative="1" as="geometry">
            <Array as="points">
              <mxPoint x="-30" y="400" />
              <mxPoint x="20" y="400" />
              <mxPoint x="20" y="500" />
            </Array>
          </mxGeometry>
        </mxCell>
        <mxCell id="yuGcTXJu8iFB5LS19rX8-4" value="OLS" style="rounded=1;whiteSpace=wrap;html=1;" parent="1" vertex="1">
          <mxGeometry x="-150" y="350" width="120" height="60" as="geometry" />
        </mxCell>
        <mxCell id="yuGcTXJu8iFB5LS19rX8-6" value="" style="shape=flexArrow;endArrow=classic;html=1;rounded=0;entryX=0;entryY=0.5;entryDx=0;entryDy=0;" parent="1" target="yuGcTXJu8iFB5LS19rX8-3" edge="1">
          <mxGeometry width="50" height="50" relative="1" as="geometry">
            <mxPoint x="-580" y="500" as="sourcePoint" />
            <mxPoint x="-70" y="420" as="targetPoint" />
          </mxGeometry>
        </mxCell>
        <mxCell id="yuGcTXJu8iFB5LS19rX8-8" value="MariaDB" style="rounded=1;whiteSpace=wrap;html=1;" parent="1" vertex="1">
          <mxGeometry x="70" y="470" width="120" height="60" as="geometry" />
        </mxCell>
        <mxCell id="yuGcTXJu8iFB5LS19rX8-14" style="edgeStyle=orthogonalEdgeStyle;rounded=0;orthogonalLoop=1;jettySize=auto;html=1;entryX=0;entryY=0.75;entryDx=0;entryDy=0;" parent="1" source="yuGcTXJu8iFB5LS19rX8-9" target="yuGcTXJu8iFB5LS19rX8-8" edge="1">
          <mxGeometry relative="1" as="geometry">
            <Array as="points">
              <mxPoint y="515" />
              <mxPoint y="515" />
            </Array>
          </mxGeometry>
        </mxCell>
        <mxCell id="yuGcTXJu8iFB5LS19rX8-9" value="phpmyadmin" style="rounded=1;whiteSpace=wrap;html=1;" parent="1" vertex="1">
          <mxGeometry x="-150" y="470" width="120" height="60" as="geometry" />
        </mxCell>
        <mxCell id="yuGcTXJu8iFB5LS19rX8-10" value="Redis" style="rounded=1;whiteSpace=wrap;html=1;" parent="1" vertex="1">
          <mxGeometry x="70" y="350" width="120" height="60" as="geometry" />
        </mxCell>
        <mxCell id="yuGcTXJu8iFB5LS19rX8-11" value="3x-ui" style="rounded=1;whiteSpace=wrap;html=1;" parent="1" vertex="1">
          <mxGeometry x="-150" y="590" width="120" height="60" as="geometry" />
        </mxCell>
      </root>
    </mxGraphModel>
  </diagram>
</mxfile>
